HIERARCHY
ROOT Hips
{
	OFFSET -0.089718 121.760773 1.256875
	CHANNELS 6 Xposition Yposition Zposition Xrotation Yrotation Zrotation 
	JOINT Spine
	{
		OFFSET 0.071961 7.257324 -0.789679
		CHANNELS 3 Xrotation Yrotation Zrotation
		JOINT Spine1
		{
			OFFSET 0.000000 12.508743 -0.658066
			CHANNELS 3 Xrotation Yrotation Zrotation
			JOINT Spine1_split
			{
				OFFSET 0.000000 12.508743 -0.658066
				CHANNELS 3 Xrotation Yrotation Zrotation
				JOINT Spine2
				{
					OFFSET 0.000000 12.508743 -0.658066
					CHANNELS 3 Xrotation Yrotation Zrotation
					JOINT Neck
					{
						OFFSET 0.000000 14.033295 7.520357
						CHANNELS 3 Xrotation Yrotation Zrotation
						JOINT Head
						{
							OFFSET 0.000000 8.198502 5.703135
							CHANNELS 3 Xrotation Yrotation Zrotation
							JOINT HeadTop_End
							{
								OFFSET 0.000000 17.760834 13.332673
								CHANNELS 3 Xrotation Yrotation Zrotation
								End Site
								{
									OFFSET 0.000000 0.000000 0.000000
								}
							}
						}
					}
					JOINT LeftShoulder
					{
						OFFSET 6.292447 5.785309 -0.668987
						CHANNELS 3 Xrotation Yrotation Zrotation
						JOINT LeftShoulder_split
						{
							OFFSET 6.292447 5.785309 -0.668987
							CHANNELS 3 Xrotation Yrotation Zrotation
							JOINT LeftArm
							{
								OFFSET 13.906050 -6.096512 1.965051
								CHANNELS 3 Xrotation Yrotation Zrotation
								JOINT LeftForeArm
								{
									OFFSET 34.136707 -0.070145 0.483191
									CHANNELS 3 Xrotation Yrotation Zrotation
									JOINT LeftHand
									{
										OFFSET 40.956070 -0.000046 0.579759
										CHANNELS 3 Xrotation Yrotation Zrotation
										JOINT LeftHandThumb1
										{
											OFFSET 9.870941 -7.205917 9.687083
											CHANNELS 3 Xrotation Yrotation Zrotation
											JOINT LeftHandThumb2
											{
												OFFSET 1.819832 -1.059479 1.085292
												CHANNELS 3 Xrotation Yrotation Zrotation
												JOINT LeftHandThumb3
												{
													OFFSET 2.094803 -1.219498 1.249332
													CHANNELS 3 Xrotation Yrotation Zrotation
													JOINT LeftHandThumb4
													{
														OFFSET 4.803749 -2.796570 2.864868
														CHANNELS 3 Xrotation Yrotation Zrotation
														End Site
														{
															OFFSET 0.000000 0.000000 0.000000
														}
													}
												}
											}
										}
										JOINT LeftHandIndex1
										{
											OFFSET 18.323029 -0.939438 4.853191
											CHANNELS 3 Xrotation Yrotation Zrotation
											JOINT LeftHandIndex2
											{
												OFFSET 4.710793 -0.000031 0.066666
												CHANNELS 3 Xrotation Yrotation Zrotation
												JOINT LeftHandIndex3
												{
													OFFSET 2.876877 -0.226105 0.045824
													CHANNELS 3 Xrotation Yrotation Zrotation
													JOINT LeftHandIndex4
													{
														OFFSET 6.145302 -0.000046 0.087005
														CHANNELS 3 Xrotation Yrotation Zrotation
														End Site
														{
															OFFSET 0.000000 0.000000 0.000000
														}
													}
												}
											}
										}
										JOINT LeftHandMiddle1
										{
											OFFSET 18.011223 0.000015 0.254925
											CHANNELS 3 Xrotation Yrotation Zrotation
											JOINT LeftHandMiddle2
											{
												OFFSET 4.946175 -0.000015 0.070024
												CHANNELS 3 Xrotation Yrotation Zrotation
												JOINT LeftHandMiddle3
												{
													OFFSET 3.341888 0.000015 0.047322
													CHANNELS 3 Xrotation Yrotation Zrotation
													JOINT LeftHandMiddle4
													{
														OFFSET 4.461334 -0.000031 0.063172
														CHANNELS 3 Xrotation Yrotation Zrotation
														End Site
														{
															OFFSET 0.000000 0.000000 0.000000
														}
													}
												}
											}
										}
										JOINT LeftHandRing1
										{
											OFFSET 15.906670 -0.087616 -3.901815
											CHANNELS 3 Xrotation Yrotation Zrotation
											JOINT LeftHandRing2
											{
												OFFSET 3.526680 -0.000031 0.049965
												CHANNELS 3 Xrotation Yrotation Zrotation
												JOINT LeftHandRing3
												{
													OFFSET 2.960831 -0.000015 0.041910
													CHANNELS 3 Xrotation Yrotation Zrotation
													JOINT LeftHandRing4
													{
														OFFSET 4.926727 -0.000031 0.069761
														CHANNELS 3 Xrotation Yrotation Zrotation
														End Site
														{
															OFFSET 0.000000 0.000000 0.000000
														}
													}
												}
											}
										}
										JOINT LeftHandPinky1
										{
											OFFSET 12.886803 -0.806839 -6.620516
											CHANNELS 3 Xrotation Yrotation Zrotation
											JOINT LeftHandPinky2
											{
												OFFSET 3.326813 0.000000 0.047121
												CHANNELS 3 Xrotation Yrotation Zrotation
												JOINT LeftHandPinky3
												{
													OFFSET 3.014618 -0.000031 0.042702
													CHANNELS 3 Xrotation Yrotation Zrotation
													JOINT LeftHandPinky4
													{
														OFFSET 5.847153 0.000031 0.082745
														CHANNELS 3 Xrotation Yrotation Zrotation
														End Site
														{
															OFFSET 0.000000 0.000000 0.000000
														}
													}
												}
											}
										}
									}
								}
							}
						}
					}
					JOINT RightShoulder
					{
						OFFSET -6.292447 5.785309 -0.668987
						CHANNELS 3 Xrotation Yrotation Zrotation
						JOINT RightShoulder_split
						{
							OFFSET -6.292447 5.785309 -0.668987
							CHANNELS 3 Xrotation Yrotation Zrotation
							JOINT RightArm
							{
								OFFSET -13.906046 -6.096527 1.965051
								CHANNELS 3 Xrotation Yrotation Zrotation
								JOINT RightForeArm
								{
									OFFSET -34.136711 -0.070145 0.483195
									CHANNELS 3 Xrotation Yrotation Zrotation
									JOINT RightHand
									{
										OFFSET -40.956062 -0.000031 0.579796
										CHANNELS 3 Xrotation Yrotation Zrotation
										JOINT RightHandThumb1
										{
											OFFSET -9.870895 -7.205978 9.687082
											CHANNELS 3 Xrotation Yrotation Zrotation
											JOINT RightHandThumb2
											{
												OFFSET -1.819832 -1.059479 1.085295
												CHANNELS 3 Xrotation Yrotation Zrotation
												JOINT RightHandThumb3
												{
													OFFSET -2.094826 -1.219513 1.249285
													CHANNELS 3 Xrotation Yrotation Zrotation
													JOINT RightHandThumb4
													{
														OFFSET -4.803757 -2.796585 2.864836
														CHANNELS 3 Xrotation Yrotation Zrotation
														End Site
														{
															OFFSET 0.000000 0.000000 0.000000
														}
													}
												}
											}
										}
										JOINT RightHandIndex1
										{
											OFFSET -18.323013 -0.939499 4.853236
											CHANNELS 3 Xrotation Yrotation Zrotation
											JOINT RightHandIndex2
											{
												OFFSET -4.710800 -0.000031 0.066705
												CHANNELS 3 Xrotation Yrotation Zrotation
												JOINT RightHandIndex3
												{
													OFFSET -2.876869 -0.226089 0.045846
													CHANNELS 3 Xrotation Yrotation Zrotation
													JOINT RightHandIndex4
													{
														OFFSET -6.145317 0.000000 0.087043
														CHANNELS 3 Xrotation Yrotation Zrotation
														End Site
														{
															OFFSET 0.000000 0.000000 0.000000
														}
													}
												}
											}
										}
										JOINT RightHandMiddle1
										{
											OFFSET -18.011230 -0.000031 0.254973
											CHANNELS 3 Xrotation Yrotation Zrotation
											JOINT RightHandMiddle2
											{
												OFFSET -4.946175 0.000000 0.069982
												CHANNELS 3 Xrotation Yrotation Zrotation
												JOINT RightHandMiddle3
												{
													OFFSET -3.341881 0.000000 0.047287
													CHANNELS 3 Xrotation Yrotation Zrotation
													JOINT RightHandMiddle4
													{
														OFFSET -4.461334 -0.000031 0.063116
														CHANNELS 3 Xrotation Yrotation Zrotation
														End Site
														{
															OFFSET 0.000000 0.000000 0.000000
														}
													}
												}
											}
										}
										JOINT RightHandRing1
										{
											OFFSET -15.906685 -0.087631 -3.901773
											CHANNELS 3 Xrotation Yrotation Zrotation
											JOINT RightHandRing2
											{
												OFFSET -3.526680 -0.000046 0.049887
												CHANNELS 3 Xrotation Yrotation Zrotation
												JOINT RightHandRing3
												{
													OFFSET -2.960831 0.000015 0.041926
													CHANNELS 3 Xrotation Yrotation Zrotation
													JOINT RightHandRing4
													{
														OFFSET -4.926727 -0.000061 0.069777
														CHANNELS 3 Xrotation Yrotation Zrotation
														End Site
														{
															OFFSET 0.000000 0.000000 0.000000
														}
													}
												}
											}
										}
										JOINT RightHandPinky1
										{
											OFFSET -12.886818 -0.806839 -6.620485
											CHANNELS 3 Xrotation Yrotation Zrotation
											JOINT RightHandPinky2
											{
												OFFSET -3.326813 -0.000015 0.047130
												CHANNELS 3 Xrotation Yrotation Zrotation
												JOINT RightHandPinky3
												{
													OFFSET -3.014618 0.000000 0.042665
													CHANNELS 3 Xrotation Yrotation Zrotation
													JOINT RightHandPinky4
													{
														OFFSET -5.847153 -0.000031 0.082798
														CHANNELS 3 Xrotation Yrotation Zrotation
														End Site
														{
															OFFSET 0.000000 0.000000 0.000000
														}
													}
												}
											}
										}
									}
								}
							}
						}
					}
				}
			}
		}
	}
	JOINT LeftUpLeg
	{
		OFFSET 13.026871 -6.336296 -1.092769
		CHANNELS 3 Xrotation Yrotation Zrotation
		JOINT LeftLeg
		{
			OFFSET 0.531735 -46.096748 9.782727
			CHANNELS 3 Xrotation Yrotation Zrotation
			JOINT LeftFoot
			{
				OFFSET -0.516061 -53.427502 -12.948194
				CHANNELS 3 Xrotation Yrotation Zrotation
				JOINT LeftToeBase
				{
					OFFSET 0.192221 -14.009666 16.364061
					CHANNELS 3 Xrotation Yrotation Zrotation
					JOINT LeftToe_End
					{
						OFFSET -1.784717 -0.561736 9.474806
						CHANNELS 3 Xrotation Yrotation Zrotation
						End Site
						{
							OFFSET 0.000000 0.000000 0.000000
						}
					}
				}
			}
		}
	}
	JOINT RightUpLeg
	{
		OFFSET -12.882952 -6.336288 -1.092769
		CHANNELS 3 Xrotation Yrotation Zrotation
		JOINT RightLeg
		{
			OFFSET -0.517510 -46.096909 9.782776
			CHANNELS 3 Xrotation Yrotation Zrotation
			JOINT RightFoot
			{
				OFFSET 0.532756 -53.427311 -12.948288
				CHANNELS 3 Xrotation Yrotation Zrotation
				JOINT RightToeBase
				{
					OFFSET -0.192224 -14.009682 16.364050
					CHANNELS 3 Xrotation Yrotation Zrotation
					JOINT RightToe_End
					{
						OFFSET 1.784716 -0.561743 9.474806
						CHANNELS 3 Xrotation Yrotation Zrotation
						End Site
						{
							OFFSET 0.000000 0.000000 0.000000
						}
					}
				}
			}
		}
	}
}
MOTION
Frames: 4
Frame Time: 0.016667
0.773912 115.066994 1.492782 4.449970 16.253926 -2.347597 -9.047176 -9.818071 1.268982 4.636101 -1.592017 -0.303832 0.000000 0.000000 0.000000 4.616004 -1.618330 -0.429758 3.210324 -2.116575 2.121247 7.396628 -7.821496 0.693632 0.000001 -0.000000 -0.000000 1.305226 -1.808907 2.217728 0.000000 0.000000 0.000000 -18.105284 -38.521727 -54.276009 0.386769 -106.768616 0.404004 31.916972 -31.561751 31.597889 -1.547608 3.745804 6.063200 4.627182 17.348129 1.563720 -0.203969 6.253661 3.016245 0.000003 0.000003 0.000001 0.103188 0.644841 -5.212841 0.044881 0.748254 -0.719410 0.129045 0.215785 -7.098833 0.000001 -0.000000 -0.000000 0.102748 0.642500 -5.196859 0.103565 0.646497 -5.228802 0.044282 0.324127 -2.606219 0.000001 0.000000 0.000001 0.103285 0.645903 -5.212841 0.103149 0.642972 -5.212827 0.044285 0.324326 -2.606220 -0.000000 0.000001 0.000001 0.446307 4.682638 -4.703364 0.098154 -3.408492 -5.730950 0.044224 0.322206 -2.606232 0.000001 -0.000000 -0.000001 -0.063058 -9.130681 7.896882 0.000000 0.000000 0.000000 5.296657 -12.883054 43.941178 0.256168 114.464067 -0.281502 30.535419 -14.741551 29.434502 -1.838130 1.113999 -5.749199 5.529813 -19.622087 -1.101886 -0.818983 -5.328991 -2.680764 -0.000002 0.000002 -0.000000 0.256031 -1.257265 10.162843 0.206890 -1.365623 5.669005 0.209074 -0.521335 9.573065 -0.000001 -0.000001 0.000001 0.255960 -1.256888 10.162847 0.255984 -1.257271 10.162840 0.100038 -0.633720 5.080408 -0.000000 0.000002 -0.000003 0.255935 -1.256719 10.162839 0.255962 -1.257326 10.162845 0.100142 -0.635203 5.079248 -0.000000 0.000000 0.000001 0.256021 -1.257198 10.162846 0.256088 -1.257571 10.162838 0.100131 -0.634057 5.080409 0.000000 0.000001 -0.000003 -14.161354 9.690713 -3.512055 26.219396 9.303895 -0.306287 -13.405648 -2.281684 12.350041 -6.792007 0.000010 -0.000001 -0.000000 -0.000002 0.000002 -12.650105 -8.068214 5.014662 24.748624 -0.809536 -7.514319 -11.676273 0.038583 0.530476 -7.343354 -0.000002 0.000000 -0.000000 -0.000000 -0.000000 
1.017275 115.011536 1.608560 5.120913 17.966270 -4.098351 -9.784918 -10.494312 1.517299 5.009729 -1.598644 0.816571 0.000000 0.000000 0.000000 5.012417 -1.653339 0.675420 2.880193 -2.291887 1.783468 7.576900 -8.889892 -0.176367 0.000001 -0.000001 0.000000 1.122200 -1.375024 2.880336 0.000000 0.000000 0.000000 -16.671003 -41.952962 -52.184558 0.388514 -106.695813 0.405653 29.755391 -32.777033 30.567067 -1.547529 3.749293 6.062764 4.627183 17.348127 1.563723 -0.203972 6.253660 3.016247 -0.000002 0.000001 -0.000001 0.105365 0.655304 -5.298168 0.047313 0.759261 -0.808448 0.130357 0.221206 -7.143332 -0.000000 0.000000 0.000002 0.104921 0.652964 -5.282196 0.105840 0.657415 -5.317847 0.045165 0.329632 -2.650742 -0.000000 -0.000000 0.000002 0.105463 0.656365 -5.298173 0.105420 0.653889 -5.301873 0.045169 0.329832 -2.650731 -0.000000 -0.000000 0.000002 0.454518 4.692584 -4.789047 0.100527 -3.397598 -5.819838 0.045105 0.327714 -2.650729 -0.000000 -0.000000 -0.000003 -0.110408 -10.118203 8.356320 0.000000 0.000000 0.000000 4.347250 -15.932796 42.723492 0.269625 113.374802 -0.293780 29.587635 -16.231875 26.920596 -1.838455 -0.023073 -5.929274 5.585466 -20.328625 -1.147690 -0.789508 -5.681196 -2.718293 0.000002 -0.000003 -0.000000 0.256030 -1.257266 10.162843 0.206888 -1.365623 5.669004 0.209074 -0.521334 9.573067 0.000002 -0.000000 -0.000000 0.255962 -1.256886 10.162842 0.255985 -1.257271 10.162842 0.100039 -0.633718 5.080409 -0.000000 -0.000000 0.000000 0.255934 -1.256719 10.162843 0.255958 -1.257326 10.162844 0.100146 -0.635203 5.079253 -0.000000 -0.000001 0.000001 0.256018 -1.257196 10.162843 0.256090 -1.257572 10.162843 0.100133 -0.634055 5.080413 0.000000 -0.000002 0.000003 -16.817982 9.519241 -2.233970 28.607631 7.012239 0.907918 -11.150922 -1.657881 9.936642 -9.758558 0.000002 0.000004 0.000000 -0.000000 -0.000000 -11.569146 -7.924134 5.485178 22.793632 -1.612827 -5.703719 -12.423376 -0.069607 0.807005 -5.986891 -0.000010 -0.000001 0.000000 0.000000 -0.000000 
1.248437 114.868210 1.729680 5.836762 19.252580 -5.825973 -10.390881 -10.828551 1.959357 5.259093 -1.547638 1.776884 0.000000 0.000000 0.000000 5.282378 -1.631457 1.628381 2.552511 -2.484928 1.482319 7.859775 -10.020497 -1.000447 0.000000 0.000000 -0.000000 1.186082 -1.425574 3.569189 0.000000 0.000000 0.000000 -14.988041 -44.985310 -49.368225 0.387583 -106.733385 0.404768 30.511790 -32.368704 31.539222 -1.547569 3.751500 6.063439 4.627181 17.348127 1.563721 -0.203971 6.253659 3.016244 -0.000000 0.000002 -0.000000 0.106447 0.660488 -5.340478 0.048494 0.764579 -0.851459 0.130991 0.223822 -7.164851 0.000000 0.000000 -0.000000 0.106001 0.658149 -5.324495 0.106944 0.662686 -5.360870 0.045593 0.332291 -2.672252 0.000000 -0.000000 -0.000001 0.106547 0.661549 -5.340487 0.106523 0.659163 -5.344886 0.045597 0.332491 -2.672255 -0.000000 -0.000000 -0.000001 0.458592 4.697509 -4.831517 0.101680 -3.392334 -5.862763 0.045533 0.330372 -2.672250 -0.000000 0.000000 -0.000001 -0.134167 -11.010197 8.897153 0.000000 0.000000 0.000000 3.188766 -18.788932 41.631127 0.288220 112.018675 -0.310912 28.312674 -18.053425 23.733579 -1.846945 -1.919596 -6.229782 5.763719 -22.621822 -1.292810 -0.695303 -6.824278 -2.839000 0.000001 -0.000004 -0.000001 0.256033 -1.257267 10.162841 0.206894 -1.365622 5.669005 0.209075 -0.521333 9.573063 -0.000003 -0.000000 0.000001 0.255960 -1.256885 10.162841 0.255989 -1.257275 10.162847 0.100039 -0.633720 5.080411 0.000003 -0.000000 0.000001 0.255936 -1.256719 10.162840 0.255961 -1.257324 10.162846 0.100145 -0.635202 5.079247 0.000004 0.000001 0.000000 0.256020 -1.257196 10.162842 0.256088 -1.257571 10.162844 0.100134 -0.634057 5.080413 0.000001 0.000001 -0.000002 -20.378943 8.737826 -0.389920 31.878979 4.042553 1.596543 -6.347583 -0.625880 5.190932 -15.768316 -0.000006 -0.000003 -0.000000 -0.000001 -0.000000 -10.918458 -7.937247 5.836709 21.408439 -2.495829 -3.719261 -13.043445 -0.088886 0.533608 -4.951781 -0.000003 0.000001 0.000000 -0.000000 -0.000000 
1.429931 114.631332 1.861948 6.529939 20.064714 -7.538460 -10.794341 -10.833232 2.810258 5.330513 -1.459978 2.381428 0.000000 0.000000 0.000000 5.365314 -1.564760 2.234579 2.340009 -2.696116 1.292712 8.182992 -11.133918 -1.482075 -0.000001 -0.000000 -0.000000 1.308543 -1.578317 4.244319 0.000000 0.000000 0.000000 -12.895052 -47.774298 -46.012795 0.384825 -106.846015 0.402148 32.406533 -31.244328 33.366345 -1.547642 3.752954 6.064357 4.627182 17.348129 1.563718 -0.203973 6.253657 3.016245 0.000001 0.000003 -0.000003 0.106946 0.662870 -5.359902 0.049018 0.766935 -0.870530 0.131275 0.224982 -7.174379 -0.000000 0.000000 0.000000 0.106500 0.660532 -5.343912 0.107435 0.665022 -5.379936 0.045785 0.333470 -2.681780 -0.000000 0.000000 -0.000002 0.107046 0.663931 -5.359905 0.107013 0.661500 -5.363955 0.045789 0.333669 -2.681779 -0.000000 -0.000000 -0.000003 0.460466 4.699772 -4.851037 0.102192 -3.390002 -5.881798 0.045724 0.331551 -2.681771 -0.000000 0.000000 0.000002 -0.170224 -11.858349 9.591536 0.000000 0.000000 0.000000 1.805178 -21.297225 40.629104 0.314660 110.325962 -0.335520 27.098113 -19.297928 20.850618 -1.870124 -4.182941 -6.589538 6.000488 -25.733832 -1.481260 -0.570977 -8.375557 -3.000286 -0.000000 0.000001 -0.000001 0.256032 -1.257265 10.162843 0.206889 -1.365623 5.669005 0.209080 -0.521332 9.573065 -0.000002 0.000003 -0.000001 0.255962 -1.256885 10.162843 0.255988 -1.257270 10.162837 0.100040 -0.633720 5.080409 0.000003 0.000000 -0.000001 0.255935 -1.256719 10.162841 0.255965 -1.257325 10.162844 0.100143 -0.635203 5.079253 -0.000000 0.000000 -0.000001 0.256022 -1.257196 10.162844 0.256085 -1.257573 10.162842 0.100131 -0.634054 5.080408 0.000000 0.000000 0.000000 -23.497975 8.113328 0.886139 34.900764 0.285603 2.028329 -2.961951 -0.470579 5.046568 -19.985844 -0.000001 -0.000002 -0.000000 0.000001 0.000000 -10.503485 -8.316438 6.236366 20.485397 -3.316649 -1.741894 -13.687043 0.000624 -0.263038 -4.052846 0.000000 -0.000001 -0.000000 -0.000001 0.000000 
